<svg xmlns="http://www.w3.org/2000/svg" viewBox="0 0 32 32"><title>medical report</title><g id="medical_report" data-name="medical report"><path d="M16,5H14V4a1,1,0,0,0-1-1H8A1,1,0,0,0,7,4V5H5A3,3,0,0,0,2,8V26a3,3,0,0,0,3,3H16a3,3,0,0,0,3-3V8A3,3,0,0,0,16,5ZM9,5h3V7H9Zm8,21a1,1,0,0,1-1,1H5a1,1,0,0,1-1-1V8A1,1,0,0,1,5,7H7V8A1,1,0,0,0,8,9h5a1,1,0,0,0,1-1V7h2a1,1,0,0,1,1,1ZM29,11H26.5V9a1,1,0,0,0-1-1h-3a1,1,0,0,0-1,1v2H21a1,1,0,0,0,0,2V25a1,1,0,0,0,.17.55l2,3a1,1,0,0,0,1.66,0l2-3A1,1,0,0,0,27,25V13h1v7a1,1,0,0,0,2,0V12A1,1,0,0,0,29,11Zm-5.5-1h1v1h-1ZM25,24.7l-1,1.5-1-1.5V13h2ZM15,13a1,1,0,0,1-1,1H7a1,1,0,0,1,0-2h7A1,1,0,0,1,15,13Zm-3,3a1,1,0,0,1-1,1H7a1,1,0,0,1,0-2h4A1,1,0,0,1,12,16Z"/></g></svg>